<svg xmlns="http://www.w3.org/2000/svg"
    width="16" height="16"
    viewBox="0 0 16 16" shape-rendering="crispEdges">
<style>
  .bg { fill: var(--bg, #161616); }
  .fg { fill: var(--fg, #ddc7a1); }
</style>
<rect width="16" height="16" class="bg"/>
<!-- u -->
<rect x="3" y="3" width="1" height="4" class="fg"/>
<rect x="4" y="7" width="2" height="1" class="fg"/>
<rect x="6" y="6" width="1" height="1" class="fg"/>
<rect x="7" y="3" width="1" height="5" class="fg"/>
<!-- i -->
<rect x="11" y="2" width="1" height="1" class="fg"/>
<rect x="10" y="4" width="1" height="1" class="fg"/>
<rect x="11" y="4" width="1" height="3" class="fg"/>
<rect x="10" y="7" width="3" height="1" class="fg"/>
<!-- m -->
<rect x="3" y="9" width="1" height="5" class="fg"/>
<rect x="4" y="9" width="1" height="1" class="fg"/>
<rect x="5" y="10" width="1" height="3" class="fg"/>
<rect x="6" y="9" width="1" height="1" class="fg"/>
<rect x="7" y="10" width="1" height="4" class="fg"/>
<!-- a -->
<rect x="10" y="9" width="3" height="1" class="fg"/>
<rect x="10" y="11" width="3" height="1" class="fg"/>
<rect x="10" y="13" width="3" height="1" class="fg"/>
<rect x="9" y="12" width="1" height="1" class="fg"/>
<rect x="13" y="10" width="1" height="4" class="fg"/>
</svg>
